<svg xmlns="http://www.w3.org/2000/svg" width="1280" height="640" viewBox="0 0 1280 640">
  <defs>
    <linearGradient id="bg" x1="0" y1="0" x2="1" y2="1">
      <stop offset="0%" stop-color="#ffffff"/>
      <stop offset="100%" stop-color="#f4f4f5"/>
    </linearGradient>
    <pattern id="grid" width="48" height="48" patternUnits="userSpaceOnUse">
      <path d="M 48 0 L 0 0 0 48" fill="none" stroke="#e4e4e7" stroke-width="1"/>
    </pattern>
  </defs>
  <rect width="1280" height="640" fill="url(#bg)"/>
  <rect width="1280" height="640" fill="url(#grid)" opacity="0.55"/>
  <rect x="0" y="0" width="8" height="640" fill="#B8860B"/>
  <g transform="translate(96,120)">
    <rect x="0" y="0" width="56" height="56" rx="12" fill="#B8860B"/>
    <path d="M28 14 L38 24 L28 34 L18 24 Z" fill="none" stroke="#fff" stroke-width="2.5" stroke-linejoin="round"/>
    <text x="72" y="42" font-family="Georgia, serif" font-size="56" font-weight="700" fill="#18181b">AFIX</text>
    <text x="0" y="96" font-family="Arial, sans-serif" font-size="28" font-weight="600" fill="#3f3f46">Trade Receivables Securitisation Platform</text>
    <text x="0" y="142" font-family="Arial, sans-serif" font-size="22" fill="#71717a">Transform receivables into liquid capital</text>
    <g transform="translate(0,180)">
      <rect x="0" y="0" width="120" height="36" rx="8" fill="#fef9ec" stroke="#e9d5a1"/>
      <text x="60" y="24" text-anchor="middle" font-family="Arial, sans-serif" font-size="14" font-weight="600" fill="#8B6508">Supplier</text>
      <rect x="136" y="0" width="88" height="36" rx="8" fill="#fef9ec" stroke="#e9d5a1"/>
      <text x="180" y="24" text-anchor="middle" font-family="Arial, sans-serif" font-size="14" font-weight="600" fill="#8B6508">Buyer</text>
      <rect x="240" y="0" width="72" height="36" rx="8" fill="#fef9ec" stroke="#e9d5a1"/>
      <text x="276" y="24" text-anchor="middle" font-family="Arial, sans-serif" font-size="14" font-weight="600" fill="#8B6508">SPV</text>
      <rect x="328" y="0" width="88" height="36" rx="8" fill="#fef9ec" stroke="#e9d5a1"/>
      <text x="372" y="24" text-anchor="middle" font-family="Arial, sans-serif" font-size="14" font-weight="600" fill="#8B6508">Admin</text>
    </g>
    <text x="0" y="280" font-family="Arial, sans-serif" font-size="16" fill="#a1a1aa">Private-Sector POC · Mock-data demo · React + TypeScript</text>
  </g>
  <g transform="translate(820,140)" opacity="0.95">
    <rect x="0" y="0" width="360" height="360" rx="24" fill="#ffffff" stroke="#e4e4e7"/>
    <rect x="32" y="40" width="296" height="56" rx="10" fill="#fafafa" stroke="#e4e4e7"/>
    <rect x="32" y="112" width="220" height="12" rx="6" fill="#e4e4e7"/>
    <rect x="32" y="136" width="160" height="12" rx="6" fill="#f4f4f5"/>
    <rect x="32" y="180" width="296" height="56" rx="10" fill="#fffbeb" stroke="#f5e6b8"/>
    <text x="180" y="214" text-anchor="middle" font-family="monospace" font-size="16" fill="#8B6508">IOU-KE-202500001</text>
    <rect x="32" y="252" width="296" height="56" rx="10" fill="#fafafa" stroke="#e4e4e7"/>
    <path d="M180 268 L220 288 L180 308 L140 288 Z" fill="none" stroke="#B8860B" stroke-width="2"/>
    <text x="180" y="350" text-anchor="middle" font-family="Arial, sans-serif" font-size="13" fill="#71717a">Listed ’ Verified ’ Offer ’ Settled</text>
  </g>
</svg>
